PathFileType  4	(X/Y/Z) C:\Users\antoi\Documents\MyRepositories\mobilecap\ResultsAnalysis
DataRate	CameraRate	NumFrames	NumMarkers	Units	OrigDataRate	OrigDataStartFrame	OrigNumFrames
100.0	100.0	4	51	mm	100.0	1	1312
Frame#	Time	r_knee			r_shank_antsup			r_ankle			r_calc			r_5meta			r_toe			L_knee			L_shank_antsup			L_ankle			L_calc			L_5meta			L_toe			r_sh2			r_sh3			r_sh4			L_sh2			L_sh3			r_thigh1			r_thigh2			r_thigh3			r_thigh4			r_thigh5			L_thigh1			L_thigh2			L_thigh3			L_thigh4			r.ASIS			r.PSIS			L.ASIS			L.PSIS			C7			R_Shoulder			L_Shoulder			R_Sternum			L_Sternum			R_humerus			R_elbow_med			R_elbow_lat			R_forearm			R_wrist_radius			R_wrist_ulna			L_humerus			L_elbow_med			L_elbow_lat			L_forearm			L_wrist_radius			L_wrist_ulna			R_HJC			L_HJC			R_HJC_reg			L_HJC_reg			
		X1	Y1	Z1	X2	Y2	Z2	X3	Y3	Z3	X4	Y4	Z4	X5	Y5	Z5	X6	Y6	Z6	X7	Y7	Z7	X8	Y8	Z8	X9	Y9	Z9	X10	Y10	Z10	X11	Y11	Z11	X12	Y12	Z12	X13	Y13	Z13	X14	Y14	Z14	X15	Y15	Z15	X16	Y16	Z16	X17	Y17	Z17	X18	Y18	Z18	X19	Y19	Z19	X20	Y20	Z20	X21	Y21	Z21	X22	Y22	Z22	X23	Y23	Z23	X24	Y24	Z24	X25	Y25	Z25	X26	Y26	Z26	X27	Y27	Z27	X28	Y28	Z28	X29	Y29	Z29	X30	Y30	Z30	X31	Y31	Z31	X32	Y32	Z32	X33	Y33	Z33	X34	Y34	Z34	X35	Y35	Z35	X36	Y36	Z36	X37	Y37	Z37	X38	Y38	Z38	X39	Y39	Z39	X40	Y40	Z40	X41	Y41	Z41	X42	Y42	Z42	X43	Y43	Z43	X44	Y44	Z44	X45	Y45	Z45	X46	Y46	Z46	X47	Y47	Z47	X48	Y48	Z48	X49	Y49	Z49	X50	Y50	Z50	X51	Y51	Z51	

1	0.00000000	-247.83496	542.78123	-433.28082	-230.00983	467.91515	-405.54420	-296.83304	106.44435	-382.69137	-349.08210	54.44899	-428.65070	-163.84295	38.36709	-313.19296	-120.12844	61.64154	-367.76452	-239.19540	543.29600	-854.92806	-218.30388	430.68551	-885.71435	-279.62169	100.57564	-894.85524	-342.42115	53.72303	-855.06071	-131.45963	31.80520	-949.00220	-101.06136	58.17383	-886.57531	-239.30458	357.27927	-381.34916	-305.87490	475.27967	-402.82355	-320.60647	359.26637	-388.07067	-307.31314	444.66540	-883.02050	-312.68505	325.01763	-897.08832	-169.20017	858.69853	-447.41316	-161.58174	746.14135	-440.54467	-216.76292	719.34891	-414.22045	-282.73540	843.69896	-452.96605	-267.60625	728.85805	-435.80944	-164.34316	863.43106	-842.94669	-158.13232	727.17527	-857.58421	-281.63611	856.99536	-841.56114	-266.97691	719.67142	-857.90789	-126.71054	1035.15434	-513.85353	-311.99916	1103.72993	-594.29822	-127.44721	1036.67451	-778.21150	-312.23118	1106.08250	-697.72105	-292.97392	1602.27678	-647.81177	-235.27492	1560.09355	-469.61437	-227.27575	1575.46022	-808.18192	-143.32795	1533.75190	-611.50310	-142.11072	1530.21555	-666.87179	-288.67545	1292.95700	-388.11960	-323.75381	1205.52785	-466.65044	-322.14827	1208.80924	-383.07794	-257.32678	1062.87292	-355.26155	-210.57510	957.57138	-357.59199	-255.24752	954.10234	-351.04921	-258.37119	1316.55463	-897.18774	-309.64800	1233.41534	-833.30064	-291.91862	1233.33871	-899.64795	-248.27587	1067.88546	-924.43241	-215.47919	973.22953	-919.54185	-254.20559	967.83371	-927.56683	-222.78364	970.22086	-524.18660	-220.57353	971.96978	-754.53738	-211.35893	968.34428	-552.81586	-211.75025	972.31215	-727.25013	
2	0.01000000	-243.95700	540.31925	-433.62876	-228.46104	467.82638	-404.92550	-296.79568	106.48926	-382.73428	-349.06011	54.45334	-428.67930	-163.81287	38.37766	-313.29725	-120.15375	61.59897	-367.76622	-238.09748	543.12605	-854.92433	-217.31191	430.44143	-885.86622	-279.53713	100.69080	-895.19883	-342.38998	53.70239	-855.05425	-131.45876	31.78764	-949.00815	-101.09061	58.13772	-886.56510	-238.34184	357.07144	-381.19042	-304.48782	475.43314	-402.74398	-319.65329	359.38809	-388.23130	-306.33050	444.62766	-883.06464	-312.00833	324.46931	-897.56480	-170.32282	857.93204	-446.65537	-162.12296	746.81417	-439.73629	-217.03900	719.49550	-414.09476	-284.19649	843.86380	-452.32729	-267.81514	728.53161	-435.70905	-165.13290	863.68724	-842.96721	-158.01163	727.42352	-857.75997	-282.15436	856.42465	-840.82367	-266.79393	719.37854	-858.11876	-128.32981	1035.10833	-513.68946	-313.20419	1104.04580	-594.29130	-128.67855	1036.48263	-777.76493	-313.36418	1106.28957	-697.84873	-292.33550	1602.48767	-646.87434	-234.64634	1559.99271	-469.03569	-226.84458	1575.79679	-807.50929	-142.75306	1533.57833	-610.76822	-141.63378	1530.22484	-666.00602	-288.89958	1293.18919	-387.24291	-324.10092	1205.60607	-465.93174	-322.60326	1209.09084	-382.26986	-258.02370	1063.01516	-354.69500	-211.41767	957.77749	-357.16854	-255.97172	954.16414	-350.53204	-259.13407	1317.02564	-896.35491	-310.09839	1233.87569	-832.96593	-292.66457	1233.95105	-899.52257	-248.80753	1068.58399	-924.37529	-215.79546	974.08990	-919.83654	-254.42866	968.47559	-927.69220	-224.49180	970.38390	-524.00043	-221.92822	971.96861	-754.34860	-212.97701	968.63341	-552.58392	-213.24634	972.40936	-726.83504	
3	0.02000000	-242.35013	540.52542	-433.35788	-226.80468	467.52419	-404.46890	-296.65182	106.64981	-382.73207	-349.03890	54.45521	-428.68611	-163.73165	38.43881	-313.28600	-120.15021	61.58273	-367.80978	-236.74353	543.04687	-855.27053	-216.15982	430.25542	-886.37516	-279.44880	100.75926	-895.44382	-342.41801	53.66685	-855.09538	-131.46152	31.76209	-949.02868	-101.11758	58.09248	-886.54403	-237.25560	356.72346	-381.02998	-302.93981	475.45080	-402.92796	-318.48878	359.70151	-388.22918	-305.17290	444.66522	-883.22824	-311.35959	324.56721	-897.66047	-171.74941	858.51001	-446.24415	-162.59679	747.37640	-439.24086	-217.16120	719.62516	-413.80273	-285.35239	843.50507	-452.37924	-267.90776	728.15370	-435.58848	-165.94559	863.96809	-843.16422	-157.86244	727.73389	-858.00806	-282.73064	855.74793	-840.29055	-266.53093	718.96309	-858.40265	-129.96147	1034.95727	-513.70116	-314.49629	1104.37458	-594.28903	-129.94105	1036.32556	-777.51581	-314.48787	1106.52870	-697.99429	-291.69234	1602.68476	-645.78860	-233.97391	1559.95196	-468.16428	-226.39553	1576.08976	-806.64781	-142.17586	1533.38328	-609.92733	-141.11677	1530.14950	-665.30607	-289.06751	1293.41712	-386.33984	-324.72565	1205.86972	-465.10852	-323.09122	1209.30918	-381.49445	-258.76299	1063.17653	-354.01685	-212.32142	957.92756	-356.44789	-256.74449	954.15507	-350.24414	-259.76840	1317.57979	-895.79837	-310.73796	1234.41477	-832.51997	-293.49095	1234.58976	-899.29205	-249.36725	1069.31205	-924.38806	-216.07472	974.91880	-920.00086	-254.64693	969.17653	-927.79852	-226.21932	970.46647	-523.97458	-223.36950	972.02893	-754.31969	-214.73024	968.88962	-552.62159	-214.71648	972.50564	-726.70388	
4	0.03000000	-241.80030	542.43777	-432.51171	-224.88822	467.17432	-403.96787	-296.52900	106.85028	-382.74778	-349.00537	54.47886	-428.71748	-163.64695	38.50910	-313.24085	-120.12645	61.58471	-367.87901	-235.08145	542.99747	-855.78844	-214.89462	429.97960	-886.92397	-279.36540	100.75201	-895.57486	-342.46036	53.62291	-855.16479	-131.46692	31.74244	-949.04193	-101.14175	58.05890	-886.53121	-235.92012	356.41600	-380.63277	-300.97232	475.50471	-402.97436	-317.07236	360.05420	-388.06044	-303.85155	444.70656	-883.38350	-310.60266	324.78221	-897.65594	-173.17258	859.69450	-445.99554	-162.80785	747.97657	-438.96643	-217.06058	719.75567	-413.38152	-286.29456	842.69364	-452.84482	-267.83380	727.75843	-435.35292	-166.79461	864.22969	-843.42535	-157.66527	728.06006	-858.26800	-283.49288	855.09754	-840.30949	-266.29636	718.45905	-858.62217	-131.68875	1034.72897	-513.73499	-315.92983	1104.66454	-594.37009	-131.37179	1036.16574	-777.40373	-315.72489	1106.75329	-698.14870	-290.96596	1602.87350	-644.63691	-233.24053	1559.91866	-467.08866	-225.83716	1576.30320	-805.60037	-141.55693	1533.14428	-608.99527	-140.51591	1529.96487	-664.65843	-289.20200	1293.53355	-385.61016	-325.47301	1206.28356	-464.38526	-323.55501	1209.44097	-380.79858	-259.51492	1063.31583	-353.31800	-213.26649	957.97945	-355.59438	-257.64352	954.18804	-349.70393	-260.37463	1318.22609	-895.48800	-311.46759	1235.04430	-832.06819	-294.43973	1235.25657	-898.95455	-249.94087	1070.10377	-924.45568	-216.37374	975.77261	-920.13529	-254.89098	969.96105	-927.96401	-228.06608	970.48560	-524.03744	-224.96374	972.08433	-754.37906	-216.64972	969.04687	-552.74228	-216.30599	972.54845	-726.73084	
